<?xml version="1.0" encoding="UTF-8"?><svg id="Layer_2" xmlns="http://www.w3.org/2000/svg" viewBox="0 0 14.17 14.15"><g id="BC"><g id="BC_BACK"><path d="M6.52.02c5.99-.45,9.8,6.24,6.34,11.16-2.71,3.85-8.48,3.98-11.37.26C-1.96,6.99.92.44,6.52.02ZM5.5,4.62c-.7-.05-1.54,0-2.26,0l-.08.08v4.77c0,.05.12.07.17.08.67.08,2.01.01,2.7-.06,1.34-.14,1.63-2.17.28-2.5-.07-.08.29-.27.35-.34.48-.53.34-1.41-.26-1.79-.22-.14-.66-.21-.92-.23ZM10.07,4.77c-.41-.07-1.19,0-1.66,0-.16,0-.16.5,0,.5h1.71c.08,0,.18-.46-.05-.5ZM8.49,7.93h2.43s.08-.07.07-.11c-.07-.48,0-.78-.24-1.22-.56-1-2.12-1.13-2.83-.22-.69.89-.49,2.74.75,3.05.92.23,2.09,0,2.23-1.1h-.88s-.15.29-.33.37c-.59.25-1.23-.12-1.2-.77Z" fill="#deb625"/><path d="M4.27,8.73v-1.35h1.28s.34.08.4.11c.3.15.37.64.23.92-.06.11-.36.33-.47.33h-1.43Z" fill="#deb625"/><path d="M4.27,6.58v-1.15h1.38c.2,0,.43.37.43.58s-.23.58-.43.58h-1.38Z" fill="#deb625"/><path d="M8.56,7.28c-.13-.04-.02-.3.02-.39.21-.48.91-.58,1.26-.19.09.1.33.58.13.58-.3,0-1.19.06-1.4,0Z" fill="#deb625"/></g></g></svg>