<?xml version="1.0" encoding="UTF-8"?><svg id="Layer_2" xmlns="http://www.w3.org/2000/svg" viewBox="0 0 85.04 85.04"><g id="Layer_4"><g id="logo"><path d="M42.52,7.73C23.31,7.73,7.73,23.31,7.73,42.52s15.58,34.79,34.79,34.79,34.79-15.58,34.79-34.79S61.73,7.73,42.52,7.73ZM42.47,75.42c-18.2,0-32.95-14.75-32.95-32.95S24.27,9.51,42.47,9.51s32.95,14.75,32.95,32.95-14.75,32.95-32.95,32.95Z" fill="#deb625"/><path d="M42.52,0C19.04,0,0,19.04,0,42.52s19.04,42.52,42.52,42.52,42.52-19.04,42.52-42.52S66,0,42.52,0ZM42.52,81.64c-21.6,0-39.12-17.51-39.12-39.12S20.92,3.4,42.52,3.4s39.12,17.51,39.12,39.12-17.51,39.12-39.12,39.12Z" fill="#deb625"/><path d="M50.15,13.26c-1.82-.52-2.6,2.31-.78,2.83,6.4,1.82,11.64,5.61,15.23,10.63-4.91.01-9.83.03-14.74.04-1.89,0-1.89,2.94,0,2.94,5.53-.02,11.06-.03,16.58-.05,1.84,3.42,2.97,7.28,3.27,11.39H15.33c.3-4.11,1.42-7.97,3.27-11.39,5.63.02,11.26.03,16.88.05,1.89,0,1.89-2.93,0-2.94-5.01-.01-10.02-.03-15.04-.04,3.56-4.99,8.77-8.76,15.11-10.6,1.81-.52,1.04-3.36-.78-2.83-13.28,3.84-22.14,15.41-22.48,29.22-.02.79.69,1.47,1.47,1.47h20.1c.01,8.12.03,16.24.04,24.36-6.33-2.23-11.42-6.33-15-12.14-.99-1.61-3.53-.13-2.53,1.48,4.31,7.02,10.68,11.86,18.61,14.11.92.26,1.86-.47,1.86-1.42-.02-8.8-.03-17.59-.05-26.39h11.44c.02,8.79.03,17.58.05,26.36,0,.94.94,1.68,1.86,1.42,7.9-2.28,14.2-7.09,18.51-14.08.59-.95-.17-2.21-1.27-2.21-3.45.02-6.9.03-10.35.05-1.89,0-1.89,2.94,0,2.94,2.52-.01,5.05-.02,7.57-.04-3.43,4.63-7.94,7.94-13.4,9.89-.01-8.11-.03-16.22-.04-24.32h20.09c.78,0,1.49-.67,1.47-1.47-.34-13.85-9.25-25.45-22.59-29.25Z" fill="#deb625"/></g></g></svg>