<?xml version="1.0" encoding="UTF-8"?><svg id="Layer_2" xmlns="http://www.w3.org/2000/svg" viewBox="0 0 14.17 14.15"><g id="BC"><g id="BC_BACK"><path d="M6.59.02c5.52-.38,9.35,5.47,6.76,10.38-2.45,4.64-9.02,5.06-12.05.77C-1.88,6.66,1.11.39,6.59.02ZM8.61,8.47c-.33.32-.56.75-1.11.52-.48-.2-1.5-1.22-1.85-1.64-.32-.39-.75-.8-.38-1.31.23-.32,1-.76.86-1.17-.09-.28-1.14-1.08-1.35-1.39-.3-.29-.83.34-1.01.57-.99,1.27.14,3.05.99,4.09,1.17,1.44,4.31,3.88,5.91,1.79.08-.11.16-.2.13-.35l-1.55-1.55c-.24-.07-.49.29-.65.44Z" fill="#deb625"/></g></g></svg>