<?xml version="1.0" encoding="UTF-8"?><svg id="Layer_2" xmlns="http://www.w3.org/2000/svg" viewBox="0 0 14.17 14.18"><g id="BC"><g id="BC_BACK"><path d="M12.06,2.02c3.54,3.45,2.47,9.45-2,11.5C4.7,15.98-1.14,11.19.19,5.45,1.43.1,8.12-1.83,12.06,2.02ZM6.73,2.41c-3.76.29-5.68,4.75-3.23,7.66,2.09,2.48,6.02,2.16,7.65-.64,1.89-3.26-.68-7.31-4.42-7.02Z" fill="#deb625"/><path d="M5.77,6.06h2.63l.07.11c.03.63.08,1.28-.04,1.9h-2.65c-.11-.65-.11-1.35,0-2.01Z" fill="#deb625"/><path d="M5.92,5.4c-.12-.04-.02-.34,0-.44.08-.35.23-.8.39-1.11.91-1.78,1.72.08,1.95,1.11.02.08.12.44,0,.44h-2.34Z" fill="#deb625"/><path d="M5.92,8.76h2.34c.12,0,.03.33,0,.41-.1.47-.36,1.21-.67,1.58-.88,1.06-1.53-.89-1.68-1.55-.02-.08-.12-.44,0-.44Z" fill="#deb625"/><path d="M5.06,6.06v2.03h-1.85c-.13-.67-.13-1.36,0-2.03h1.85Z" fill="#deb625"/><path d="M10.98,6.06c.13.67.13,1.36,0,2.03h-1.85v-2.03h1.85Z" fill="#deb625"/><path d="M3.52,5.4c.22-.71.93-1.41,1.56-1.77.05-.03.78-.41.74-.28-.27.44-.42.94-.55,1.43-.03.1-.07.62-.18.62h-1.57Z" fill="#deb625"/><path d="M10.67,5.4h-1.57c-.11,0-.15-.52-.18-.62-.13-.49-.29-.99-.55-1.43-.04-.13.69.25.74.28.63.37,1.34,1.07,1.56,1.77Z" fill="#deb625"/><path d="M5.08,8.76c.12.04.14.5.18.62.13.49.29.99.55,1.43.04.13-.69-.25-.74-.28-.63-.37-1.34-1.07-1.56-1.77h1.57Z" fill="#deb625"/><path d="M10.67,8.76c-.22.71-.93,1.41-1.56,1.77-.05.03-.78.41-.74.28.27-.44.42-.94.55-1.43.03-.1.07-.62.18-.62h1.57Z" fill="#deb625"/></g></g></svg>